<?xml version="1.0" standalone="no"?>
<!DOCTYPE svg PUBLIC "-//W3C//DTD SVG 20010904//EN"
 "http://www.w3.org/TR/2001/REC-SVG-20010904/DTD/svg10.dtd">
<svg version="1.0" xmlns="http://www.w3.org/2000/svg"
 width="392.000000pt" height="274.000000pt" viewBox="0 0 392.000000 274.000000"
 preserveAspectRatio="xMidYMid meet">

<g transform="translate(0.000000,274.000000) scale(0.100000,-0.100000)"
fill="#000000" stroke="none">
<path d="M130 1820 l0 -919 29 -34 c36 -40 114 -84 185 -103 28 -8 111 -19
185 -24 195 -15 291 -40 349 -93 l22 -20 24 22 c38 35 154 70 273 82 208 20
294 37 363 72 78 39 110 80 110 143 l0 44 -261 0 -261 0 4 214 c1 118 7 218
11 223 5 4 121 9 258 11 152 2 247 7 244 13 -4 5 -111 9 -256 9 l-249 0 0 220
0 220 250 2 c158 2 250 7 250 13 0 6 -92 11 -249 13 l-249 2 -7 63 c-3 34 -5
132 -3 217 l3 155 258 3 257 2 -2 183 -3 182 -767 3 -768 2 0 -920z m250 791
c0 -15 8 -21 33 -23 31 -3 32 -5 35 -50 2 -37 0 -48 -12 -48 -10 0 -16 12 -18
38 -2 25 -8 37 -18 37 -10 0 -16 -12 -18 -37 -2 -25 -8 -38 -18 -38 -11 0 -14
16 -14 70 0 56 3 70 15 70 8 0 15 -9 15 -19z m940 4 c0 -8 -4 -15 -10 -15 -5
0 -10 7 -10 15 0 8 5 15 10 15 6 0 10 -7 10 -15z m-590 -9 c0 -8 6 -17 13 -20
10 -5 10 -7 0 -12 -7 -3 -13 -18 -13 -34 0 -16 6 -30 13 -33 9 -3 9 -8 1 -16
-21 -23 -42 -1 -46 47 -2 26 -2 55 0 65 5 20 32 23 32 3z m-402 -35 c3 -10 -4
-12 -29 -7 l-34 6 33 -15 c39 -18 43 -50 8 -66 -17 -8 -29 -8 -45 0 -32 18
-26 34 10 26 22 -5 29 -4 25 4 -4 6 -13 11 -19 11 -25 0 -39 17 -32 39 5 18
13 22 43 19 19 -2 37 -9 40 -17z m230 -33 c3 -42 1 -48 -17 -48 -10 0 -26 -3
-34 -6 -19 -7 -48 22 -40 41 3 9 16 18 29 21 13 3 24 10 24 15 0 5 -11 7 -25
3 -14 -3 -25 -2 -25 3 0 18 14 24 50 21 34 -3 35 -4 38 -50z m110 0 c4 -56
-15 -66 -20 -10 -2 25 -8 37 -18 37 -10 0 -16 -12 -18 -37 -2 -25 -8 -38 -18
-38 -10 0 -14 13 -14 51 l0 50 43 -3 42 -3 3 -47z m180 40 c21 -21 14 -66 -12
-83 -50 -33 -104 20 -72 70 18 27 63 34 84 13z m240 -40 c2 -38 0 -48 -12 -48
-12 0 -16 11 -16 41 0 52 -24 48 -28 -4 -5 -54 -32 -50 -32 4 0 52 -24 48 -28
-4 -2 -24 -8 -37 -18 -37 -10 0 -14 13 -14 50 l0 50 73 -2 72 -3 3 -47z m110
1 c3 -46 2 -47 -30 -52 -38 -5 -58 7 -58 34 0 14 9 21 30 26 17 3 30 10 30 15
0 5 -13 7 -30 3 -16 -4 -30 -2 -30 3 0 17 14 23 50 20 34 -3 35 -4 38 -49z
m90 39 c-3 -7 -11 -13 -19 -13 -9 0 -15 -13 -17 -37 -2 -25 -8 -38 -18 -38
-10 0 -14 13 -14 50 l0 50 36 0 c24 0 34 -4 32 -12z m32 -38 c0 -27 -4 -50
-10 -50 -5 0 -10 23 -10 50 0 28 5 50 10 50 6 0 10 -22 10 -50z m110 -2 l6
-46 -36 -5 c-43 -6 -70 14 -54 41 6 9 21 18 33 20 11 2 21 7 21 12 0 5 -15 7
-32 3 -30 -6 -32 -5 -19 11 9 11 25 16 45 14 29 -3 31 -6 36 -50z m172 39 c4
-7 8 -29 8 -49 0 -52 -28 -53 -32 -1 -4 52 -26 54 -34 4 -8 -51 -22 -53 -26
-3 -2 25 -8 37 -18 37 -10 0 -16 -12 -18 -37 -2 -25 -8 -38 -18 -38 -10 0 -14
13 -14 49 l0 49 72 0 c45 0 76 -4 80 -11z m-672 -42 c0 -9 -9 -15 -25 -15 -16
0 -25 6 -25 15 0 9 9 15 25 15 16 0 25 -6 25 -15z m-270 -241 c0 -69 -2 -75
-17 -68 -81 35 -168 57 -245 62 l-88 5 0 -182 0 -181 -35 0 -35 0 0 220 0 220
210 0 210 0 0 -76z m230 32 c0 -43 -1 -44 -37 -51 -21 -4 -65 -18 -99 -31 -33
-13 -64 -24 -67 -24 -9 0 -9 135 0 143 3 4 51 7 105 7 l98 0 0 -44z m240 -176
l0 -220 -45 0 -45 0 0 180 0 180 -65 0 -65 0 0 40 0 40 110 0 110 0 0 -220z
m-595 90 c33 -11 75 -28 93 -37 l32 -18 0 -127 0 -128 -165 0 -165 0 0 171 0
172 73 -6 c39 -4 99 -16 132 -27z m485 -140 l0 -170 -55 0 -55 0 0 163 c0 90
3 167 7 170 3 4 28 7 55 7 l48 0 0 -170z m-130 -5 l0 -165 -100 0 -100 0 0
130 c0 124 1 130 23 141 29 16 148 59 165 59 9 0 12 -40 12 -165z m-580 -334
l0 -138 68 -7 c37 -4 93 -11 125 -18 l57 -11 0 -63 0 -64 -160 0 -160 0 0 220
0 220 35 0 35 0 0 -139z m350 -27 c0 -154 -1 -166 -17 -159 -63 27 -130 45
-215 55 l-98 12 0 129 0 129 165 0 165 0 0 -166z m230 -72 c0 -27 -4 -30 -57
-42 -32 -7 -76 -21 -97 -31 -22 -11 -41 -19 -43 -19 -2 0 -3 27 -3 60 l0 60
100 0 100 0 0 -28z m125 3 c0 -17 -8 -20 -52 -23 -46 -3 -53 -1 -53 16 0 28
10 33 60 30 37 -3 45 -6 45 -23z m115 -90 l0 -115 -110 0 -110 0 0 75 0 75 28
0 c15 0 44 3 65 6 32 6 37 10 37 34 0 35 6 40 52 40 l38 0 0 -115z m-240 -45
l0 -70 -50 0 -51 0 3 62 c3 57 5 63 28 69 66 18 70 15 70 -61z m-256 19 c19
-15 26 -30 26 -55 0 -33 -1 -34 -40 -34 l-40 0 0 55 c0 62 10 68 54 34z m126
-34 l0 -55 -35 0 c-33 0 -35 2 -35 34 0 26 7 39 28 55 15 11 30 21 35 21 4 0
7 -25 7 -55z m-200 -216 l0 -141 40 -45 c42 -48 71 -119 54 -131 -33 -22 -18
-82 20 -82 30 0 46 42 27 71 -6 10 -11 26 -11 34 0 26 36 88 69 119 l31 30 0
138 0 138 50 0 50 0 0 -220 0 -220 -75 0 -75 0 0 -29 c0 -43 -16 -78 -40 -91
-51 -27 -100 21 -100 97 0 57 -17 107 -45 133 -25 23 -25 26 -25 182 0 134 2
158 15 158 13 0 15 -22 15 -141z m100 -45 l0 -176 -40 48 -40 49 0 127 0 128
40 0 40 0 0 -176z m100 46 l0 -130 -32 -44 c-18 -25 -36 -45 -40 -45 -9 -1
-10 258 -2 312 6 34 9 37 40 37 l34 0 0 -130z m370 -90 l0 -220 -110 0 -110 0
0 220 0 220 110 0 110 0 0 -220z"/>
<path d="M500 2520 c0 -5 4 -10 9 -10 6 0 13 5 16 10 3 6 -1 10 -9 10 -9 0
-16 -4 -16 -10z"/>
<path d="M791 2557 c-15 -19 -3 -49 18 -45 9 2 16 13 16 27 0 29 -17 37 -34
18z"/>
<path d="M1140 2520 c0 -5 7 -10 15 -10 8 0 15 5 15 10 0 6 -7 10 -15 10 -8 0
-15 -4 -15 -10z"/>
<path d="M1375 2520 c-3 -5 1 -10 9 -10 9 0 16 5 16 10 0 6 -4 10 -9 10 -6 0
-13 -4 -16 -10z"/>
<path d="M3661 2301 c-12 -12 -21 -34 -21 -51 0 -20 -5 -30 -15 -30 -8 0 -15
-7 -15 -15 0 -8 7 -15 15 -15 12 0 15 -18 15 -105 0 -98 1 -105 20 -105 18 0
20 8 22 103 3 97 4 102 26 105 31 5 29 32 -3 32 -45 0 -28 53 20 62 33 6 24
33 -12 36 -22 2 -38 -3 -52 -17z"/>
<path d="M1200 2208 c0 -134 7 -173 37 -202 51 -51 162 -42 206 16 17 23 21
47 25 158 l5 130 -27 0 -26 0 0 -124 c0 -151 -10 -171 -85 -171 -75 0 -85 20
-85 171 l0 124 -25 0 -25 0 0 -102z"/>
<path d="M1792 2288 c5 -34 38 -37 38 -4 0 20 -5 26 -21 26 -15 0 -20 -5 -17
-22z"/>
<path d="M2780 2285 c0 -18 5 -25 20 -25 15 0 20 7 20 25 0 18 -5 25 -20 25
-15 0 -20 -7 -20 -25z"/>
<path d="M2902 2288 c-7 -7 -12 -25 -12 -40 0 -18 -5 -28 -15 -28 -8 0 -15 -7
-15 -15 0 -8 7 -15 15 -15 11 0 15 -20 17 -97 3 -91 5 -98 26 -109 29 -14 63
-7 55 12 -2 7 -13 16 -24 19 -17 6 -19 16 -19 91 0 77 2 84 20 84 11 0 20 7
20 15 0 8 -9 15 -20 15 -17 0 -20 7 -20 40 0 41 -7 49 -28 28z"/>
<path d="M1625 2223 c-11 -3 -26 -10 -34 -17 -11 -8 -15 -8 -18 2 -3 6 -13 12
-24 12 -18 0 -19 -8 -19 -120 0 -111 1 -120 19 -120 16 0 19 10 23 87 4 74 8
89 27 105 29 23 53 23 74 0 13 -14 17 -39 17 -105 0 -80 2 -87 20 -87 19 0 20
7 20 99 0 80 -3 103 -17 119 -19 22 -56 32 -88 25z"/>
<path d="M2193 2219 c-50 -14 -73 -52 -73 -120 0 -50 4 -63 28 -89 34 -39 86
-49 134 -26 44 21 66 62 38 69 -11 3 -26 -4 -39 -19 -29 -33 -73 -32 -100 2
-38 48 -30 54 69 54 101 0 105 4 76 75 -21 49 -73 71 -133 54z m79 -46 c10 -9
18 -24 18 -35 0 -16 -8 -18 -65 -18 -36 0 -65 4 -65 9 0 4 9 20 21 35 24 30
63 34 91 9z"/>
<path d="M2452 2214 c-12 -8 -22 -10 -22 -5 0 6 -9 11 -20 11 -19 0 -20 -7
-20 -120 0 -113 1 -120 20 -120 18 0 20 7 20 78 0 87 16 122 54 122 19 0 44
26 34 35 -15 13 -48 12 -66 -1z"/>
<path d="M2595 2223 c-34 -9 -55 -34 -55 -69 0 -37 22 -57 75 -70 17 -3 40
-13 53 -21 18 -11 20 -17 12 -33 -19 -35 -110 -19 -110 20 0 4 -9 6 -20 3 -25
-7 -25 -23 0 -51 23 -24 77 -37 112 -27 60 18 88 84 51 117 -10 9 -44 23 -76
32 -50 15 -58 20 -55 39 4 32 70 37 91 7 9 -13 20 -18 31 -14 19 7 19 9 6 34
-8 16 -72 43 -90 39 -3 -1 -14 -4 -25 -6z"/>
<path d="M3432 2219 c-50 -15 -74 -60 -69 -132 3 -45 9 -63 28 -83 33 -33 87
-41 131 -20 44 21 58 51 58 122 0 48 -4 60 -29 85 -16 16 -36 29 -44 29 -9 0
-21 2 -29 4 -7 2 -28 0 -46 -5z m87 -55 c28 -36 29 -106 1 -134 -29 -29 -74
-26 -99 6 -44 56 -13 154 49 154 19 0 36 -9 49 -26z"/>
<path d="M1790 2100 c0 -113 1 -120 20 -120 19 0 20 7 20 120 0 113 -1 120
-20 120 -19 0 -20 -7 -20 -120z"/>
<path d="M1889 2173 c75 -196 74 -193 95 -193 18 0 28 18 61 108 51 136 50
132 26 132 -19 0 -25 -11 -72 -142 -7 -21 -16 -35 -20 -30 -3 4 -19 44 -34 90
-24 72 -29 82 -51 82 l-24 0 19 -47z"/>
<path d="M2780 2100 c0 -113 1 -120 20 -120 19 0 20 7 20 120 0 113 -1 120
-20 120 -19 0 -20 -7 -20 -120z"/>
<path d="M2995 2198 c4 -13 25 -68 46 -122 34 -87 37 -102 26 -125 -7 -14 -22
-27 -35 -29 -31 -5 -30 -42 1 -42 13 0 31 6 41 13 21 15 138 321 125 325 -22
8 -38 -9 -55 -60 -9 -29 -24 -69 -32 -88 l-15 -35 -31 90 c-26 76 -35 91 -54
93 -21 3 -23 1 -17 -20z"/>
<path d="M2708 1870 c-9 -6 -22 -26 -28 -45 -10 -31 -16 -35 -45 -35 -18 0
-38 -7 -45 -15 -11 -13 -7 -15 29 -15 40 0 41 -1 35 -27 -14 -57 -25 -76 -78
-129 -68 -67 -102 -73 -112 -19 -6 32 8 131 23 171 6 17 -28 19 -43 4 -8 -8
-19 -8 -38 0 -74 28 -137 0 -191 -84 -95 -149 -258 -208 -277 -101 -2 16 4 21
37 25 77 11 145 65 145 115 0 28 -38 55 -76 55 -42 0 -101 -31 -126 -65 -52
-71 -45 -180 14 -211 54 -28 146 0 223 67 l35 31 0 -25 c0 -40 21 -77 48 -84
32 -8 96 38 136 99 33 49 47 61 39 29 -2 -10 0 -37 7 -59 19 -72 74 -67 161
15 27 25 47 39 44 31 -10 -26 14 -97 37 -109 41 -22 148 33 148 76 0 14 -6 12
-31 -9 -40 -34 -86 -35 -99 -2 -10 26 1 112 20 173 l12 33 87 0 c54 0 92 5 99
12 6 6 18 13 26 14 21 3 66 35 77 55 5 11 7 19 5 19 -13 0 -82 -37 -98 -52
-14 -14 -35 -18 -103 -18 l-85 0 10 26 c6 14 15 34 20 45 9 15 7 19 -7 19 -10
0 -26 -5 -35 -10z m-640 -151 c4 -35 -31 -76 -79 -90 -21 -7 -42 -10 -45 -6
-12 12 18 77 48 102 38 32 72 30 76 -6z m322 6 c17 -9 30 -19 30 -24 0 -13
-83 -122 -114 -151 -21 -19 -31 -22 -44 -14 -37 23 -23 128 22 177 28 31 63
34 106 12z"/>
<path d="M1345 1847 c-136 -77 -170 -292 -56 -352 35 -18 95 -20 142 -4 50 17
99 57 99 81 0 18 -3 17 -35 -10 -40 -36 -95 -54 -136 -45 -105 21 -110 206 -8
297 53 49 107 50 150 5 l28 -30 7 27 c10 39 -16 54 -90 54 -44 0 -72 -6 -101
-23z"/>
<path d="M3070 1774 c0 -3 9 -19 21 -35 30 -43 19 -70 -60 -151 -53 -54 -74
-69 -92 -66 -21 3 -24 8 -23 43 1 22 5 68 9 103 8 62 8 62 -17 62 -23 0 -26
-4 -31 -57 -4 -32 -10 -79 -13 -104 -5 -40 -3 -50 16 -69 43 -43 127 -1 201
101 28 38 46 54 50 46 14 -25 30 -128 24 -148 -6 -18 -4 -20 17 -14 34 9 98
84 142 165 31 57 36 74 26 85 -19 23 -24 19 -44 -37 -10 -29 -34 -78 -54 -108
l-35 -55 -23 92 c-29 117 -49 153 -86 153 -15 0 -28 -3 -28 -6z"/>
<path d="M1799 1747 c-18 -12 -49 -46 -69 -74 -67 -97 -62 -91 -55 -63 3 14 8
49 11 78 7 51 6 52 -20 52 -24 0 -26 -4 -26 -39 0 -21 -7 -73 -16 -116 -9 -42
-13 -83 -10 -91 12 -31 37 -12 65 49 54 118 124 192 161 169 14 -9 21 -7 34 7
21 23 11 51 -19 51 -12 0 -37 -10 -56 -23z"/>
<path d="M3465 1754 c-46 -24 -63 -43 -81 -90 -21 -56 -14 -128 15 -158 35
-35 114 -29 186 15 58 35 126 102 151 151 25 48 -3 40 -41 -12 -60 -82 -146
-140 -208 -140 -38 0 -55 15 -59 51 -3 20 2 24 37 29 45 7 80 23 113 53 29 27
31 91 3 107 -28 15 -82 12 -116 -6z m85 -19 c29 -35 -44 -115 -104 -115 -33 0
-7 72 40 109 32 25 47 26 64 6z"/>
<path d="M1200 1370 c0 -18 7 -20 60 -20 l60 0 0 -160 0 -160 25 0 25 0 0 160
0 160 60 0 c53 0 60 2 60 20 0 19 -7 20 -145 20 -138 0 -145 -1 -145 -20z"/>
<path d="M2010 1210 l0 -180 25 0 c25 0 25 0 25 95 0 82 3 98 20 115 25 25 62
26 83 2 13 -15 17 -39 17 -115 l0 -97 26 0 26 0 -4 111 c-3 107 -4 112 -31
135 -32 27 -69 30 -109 10 l-28 -15 0 60 c0 56 -1 59 -25 59 l-25 0 0 -180z"/>
<path d="M2860 1210 c0 -173 1 -180 20 -180 19 0 20 7 20 180 0 173 -1 180
-20 180 -19 0 -20 -7 -20 -180z"/>
<path d="M1519 1277 c-58 -39 -75 -140 -34 -203 23 -35 78 -57 126 -49 60 10
121 85 69 85 -10 0 -30 -11 -44 -25 -43 -43 -107 -24 -122 38 l-6 27 96 0 96
0 0 38 c0 92 -102 142 -181 89z m108 -32 c11 -8 23 -24 26 -35 5 -19 1 -20
-69 -20 -81 0 -88 7 -49 45 27 28 61 32 92 10z"/>
<path d="M1803 1280 c-46 -28 -56 -53 -51 -133 3 -61 7 -72 31 -93 38 -32 87
-40 130 -19 48 22 74 80 40 87 -11 2 -25 -7 -36 -25 -58 -93 -159 7 -117 117
18 50 101 61 115 16 7 -21 55 -29 55 -9 0 38 -56 79 -107 79 -15 0 -42 -9 -60
-20z"/>
<path d="M2365 1284 c-19 -10 -31 -11 -33 -5 -2 6 -12 11 -23 11 -18 0 -19 -9
-19 -130 l0 -130 25 0 c25 0 25 0 25 95 0 82 3 98 20 115 25 25 62 26 83 2 13
-15 17 -39 17 -115 0 -97 0 -97 25 -97 25 0 25 0 25 94 0 51 -5 107 -10 123
-18 50 -78 67 -135 37z"/>
<path d="M2622 1283 c-42 -20 -62 -59 -62 -118 0 -90 43 -140 120 -140 79 0
120 47 120 135 0 65 -22 108 -65 126 -44 18 -72 17 -113 -3z m106 -43 c41 -38
40 -113 -1 -157 -26 -29 -59 -29 -93 1 -24 20 -28 31 -28 74 0 40 5 57 24 77
28 30 68 32 98 5z"/>
<path d="M3021 1288 c-62 -33 -89 -131 -54 -198 24 -46 81 -75 130 -65 99 18
137 156 65 236 -32 36 -100 49 -141 27z m104 -53 c20 -19 25 -34 25 -75 0 -41
-5 -56 -25 -75 -13 -14 -36 -25 -50 -25 -14 0 -37 11 -50 25 -20 19 -25 34
-25 75 0 41 5 56 25 75 13 14 36 25 50 25 14 0 37 -11 50 -25z"/>
<path d="M3304 1290 c-61 -25 -89 -119 -56 -192 28 -63 85 -83 155 -53 25 10
23 -25 -4 -59 -25 -31 -70 -35 -98 -7 -48 48 -82 30 -41 -22 39 -49 150 -44
184 8 13 19 16 54 16 175 0 143 -1 150 -20 150 -11 0 -20 -4 -20 -9 0 -6 -12
-3 -27 5 -31 16 -58 17 -89 4z m95 -56 c29 -37 29 -110 -1 -141 -50 -53 -118
-10 -118 74 0 81 75 123 119 67z"/>
<path d="M3510 1285 c0 -3 20 -59 45 -124 25 -65 45 -126 45 -135 0 -32 -20
-56 -46 -56 -21 0 -25 -4 -22 -22 4 -29 38 -35 67 -11 14 11 46 80 86 186 62
163 63 167 40 167 -20 0 -28 -12 -53 -77 -16 -43 -33 -89 -37 -102 -8 -27 -6
-32 -56 117 -18 53 -24 62 -45 62 -13 0 -24 -2 -24 -5z"/>
<path d="M100 808 c0 -24 47 -114 79 -150 38 -43 38 -48 5 -48 -38 0 -114 -21
-114 -32 0 -18 151 -80 234 -96 83 -16 84 -16 70 -37 l-14 -22 112 -6 c125 -6
243 -35 361 -89 l67 -31 78 36 c111 53 218 78 350 84 105 5 112 7 97 23 -20
22 -19 30 3 30 68 0 310 88 298 109 -7 11 -85 31 -120 31 l-26 0 35 46 c41 53
64 95 76 136 l8 29 -35 -22 c-95 -59 -217 -102 -321 -114 -61 -7 -63 -8 -63
-36 0 -28 -1 -29 -54 -29 -72 0 -186 -23 -265 -52 l-64 -24 -56 22 c-72 29
-195 54 -266 54 -54 0 -55 1 -55 29 0 28 -2 29 -57 36 -119 14 -259 62 -333
115 -21 15 -30 17 -30 8z m288 -208 c12 0 12 -3 2 -15 -7 -8 -10 -22 -6 -30 4
-12 2 -13 -12 -6 -11 6 -24 6 -36 -1 -16 -9 -18 -8 -12 7 3 10 1 24 -5 31 -9
11 -8 14 4 14 9 0 19 10 23 23 l7 22 10 -22 c6 -13 17 -23 25 -23z m1062 -5
c0 -9 9 -15 23 -15 19 -1 20 -2 5 -10 -11 -7 -14 -17 -10 -32 5 -21 4 -22 -11
-9 -14 11 -20 11 -34 0 -15 -12 -16 -12 -11 8 4 15 0 24 -11 28 -13 6 -12 8 7
16 12 4 22 13 22 19 0 5 5 10 10 10 6 0 10 -7 10 -15z m-864 -40 c4 -10 13
-13 26 -9 11 3 32 0 46 -7 20 -11 26 -11 29 -1 7 18 20 15 26 -8 3 -10 -1 -24
-9 -31 -8 -6 -14 -19 -14 -28 1 -10 6 -6 16 12 11 20 22 27 43 27 16 0 31 6
34 13 2 6 8 9 12 5 4 -4 -1 -29 -10 -57 -17 -53 -40 -66 -67 -38 -7 8 -21 12
-32 9 -17 -5 -18 -1 -14 36 5 31 3 39 -7 36 -7 -3 -16 -1 -20 5 -3 6 -11 11
-17 11 -5 0 0 -8 13 -18 14 -12 20 -25 16 -35 -8 -21 -40 -22 -57 -2 -17 20
-5 32 15 15 26 -22 25 -6 -1 17 -17 15 -24 17 -24 8 0 -18 -34 -37 -54 -29
-21 8 -29 39 -16 64 13 24 58 27 66 5z m680 7 c6 -4 15 -26 19 -49 5 -35 4
-43 -13 -52 -14 -7 -24 -7 -38 4 -10 7 -16 17 -12 21 4 4 14 2 21 -4 8 -7 17
-9 20 -5 12 11 8 23 -8 23 -18 0 -19 12 -3 28 6 6 8 15 4 19 -4 4 -11 1 -15
-6 -5 -7 -14 -12 -21 -9 -9 3 -8 9 4 21 19 19 26 20 42 9z m-65 -39 c22 -58
-19 -105 -53 -63 -31 38 -20 90 18 90 17 0 28 -8 35 -27z m-83 -26 c25 -53
-16 -99 -50 -57 -18 22 -24 71 -11 84 15 14 48 0 61 -27z m-94 -40 c-1 -33 1
-37 19 -31 33 10 15 -17 -22 -32 l-34 -14 6 27 c4 16 9 38 13 51 5 16 2 22
-10 22 -9 0 -16 -7 -16 -15 0 -8 -4 -15 -10 -15 -5 0 -10 6 -10 13 0 20 23 38
45 35 16 -2 20 -10 19 -41z m-214 -35 c0 -13 -12 -22 -22 -16 -10 6 -1 24 13
24 5 0 9 -4 9 -8z"/>
<path d="M545 510 c4 -6 11 -8 16 -5 14 9 11 15 -7 15 -8 0 -12 -5 -9 -10z"/>
<path d="M737 483 c-10 -10 -8 -43 2 -43 9 0 21 24 21 41 0 11 -14 12 -23 2z"/>
<path d="M1150 512 c0 -23 25 -58 33 -46 3 5 3 21 0 37 -6 30 -33 38 -33 9z"/>
<path d="M1070 486 c0 -26 24 -53 34 -37 8 13 -11 61 -24 61 -5 0 -10 -11 -10
-24z"/>
<path d="M3690 225 c0 -34 -1 -35 -39 -35 -46 0 -65 -19 -65 -66 0 -48 32 -79
71 -69 15 5 34 7 41 6 9 -1 12 24 12 99 0 60 -4 100 -10 100 -5 0 -10 -16 -10
-35z m-6 -87 c8 -22 6 -32 -9 -48 -10 -11 -22 -20 -26 -20 -16 0 -39 32 -39
54 0 50 57 61 74 14z"/>
<path d="M24 215 c-27 -66 -6 -195 33 -195 11 0 10 5 -2 24 -25 37 -30 115
-11 160 19 45 19 46 5 46 -5 0 -17 -16 -25 -35z"/>
<path d="M261 236 c-51 -28 -67 -104 -31 -148 22 -28 65 -41 110 -32 28 6 30
9 30 55 l0 49 -35 0 c-19 0 -35 -4 -35 -10 0 -5 9 -10 20 -10 16 0 20 -7 20
-30 0 -17 -6 -31 -12 -31 -57 -5 -88 20 -88 71 0 49 29 75 81 74 40 -1 52 9
23 20 -25 9 -57 6 -83 -8z"/>
<path d="M2385 238 c-2 -7 -18 -50 -34 -96 -24 -66 -27 -82 -15 -82 8 0 20 14
25 30 9 24 17 30 40 30 24 0 32 -6 40 -30 6 -16 18 -30 26 -30 8 0 13 6 11 12
-3 7 -17 50 -32 96 -18 52 -33 82 -42 82 -8 0 -17 -6 -19 -12z m38 -100 c-6
-11 -43 -10 -43 1 0 4 5 23 12 41 l11 33 12 -34 c6 -19 10 -37 8 -41z"/>
<path d="M3878 218 c22 -42 21 -123 -1 -165 -14 -27 -15 -33 -3 -33 18 0 46
70 46 115 0 44 -28 115 -45 115 -10 0 -10 -7 3 -32z"/>
<path d="M1930 211 c0 -11 -6 -22 -12 -25 -10 -5 -10 -7 0 -12 7 -3 12 -25 12
-54 0 -50 18 -77 45 -66 18 7 20 27 3 24 -9 -2 -14 13 -16 45 -2 37 0 47 12
47 9 0 16 5 16 10 0 6 -7 10 -15 10 -8 0 -15 9 -15 20 0 11 -7 20 -15 20 -8 0
-15 -9 -15 -19z"/>
<path d="M446 174 c-35 -35 -6 -124 40 -124 19 0 56 19 66 34 13 19 8 74 -8
90 -20 21 -78 21 -98 0z m84 -49 c0 -25 -6 -37 -22 -46 -18 -10 -24 -8 -40 11
-23 29 -23 45 2 70 29 29 60 11 60 -35z"/>
<path d="M610 187 c0 -2 11 -30 24 -63 23 -57 48 -79 59 -52 46 115 47 118 33
118 -8 0 -23 -23 -34 -52 l-19 -52 -17 52 c-10 30 -24 52 -32 52 -8 0 -14 -1
-14 -3z"/>
<path d="M800 170 c-19 -36 -8 -93 21 -109 27 -15 79 -9 79 10 0 6 -9 8 -20 4
-22 -7 -70 18 -70 35 0 6 23 10 50 10 53 0 56 3 40 44 -8 22 -16 26 -49 26
-30 0 -43 -5 -51 -20z m70 -5 c17 -21 9 -27 -31 -23 -31 3 -32 4 -15 21 21 21
30 21 46 2z"/>
<path d="M970 123 c0 -49 3 -63 15 -63 11 0 15 12 15 51 0 42 3 52 20 56 32 9
23 21 -15 20 l-35 -1 0 -63z"/>
<path d="M1100 124 c0 -36 4 -64 10 -64 6 0 10 17 10 38 0 46 19 76 46 70 15
-2 20 -13 22 -56 2 -28 8 -52 13 -52 6 0 9 26 7 63 l-3 62 -52 1 -53 2 0 -64z"/>
<path d="M1290 123 c0 -35 4 -63 10 -63 6 0 10 17 10 38 0 46 20 78 44 69 12
-5 16 -19 16 -57 0 -37 4 -50 14 -50 11 0 16 15 18 52 2 42 7 54 22 56 25 5
36 -14 36 -65 0 -24 5 -43 10 -43 7 0 10 24 8 63 -3 60 -4 62 -31 65 -16 2
-34 -2 -42 -8 -9 -8 -15 -8 -20 0 -3 5 -26 9 -51 8 l-44 -1 0 -64z"/>
<path d="M1567 172 c-50 -55 8 -142 77 -116 23 9 20 27 -4 19 -24 -8 -60 11
-60 30 0 11 12 15 45 15 48 0 56 11 35 51 -14 25 -71 26 -93 1z m57 2 c28 -11
18 -34 -14 -34 -32 0 -37 9 -18 28 14 14 12 14 32 6z"/>
<path d="M1730 124 c0 -49 3 -64 14 -64 11 0 16 15 18 52 2 43 7 54 22 56 27
6 46 -24 46 -70 0 -21 5 -38 10 -38 15 0 12 106 -3 118 -7 6 -34 11 -60 10
l-47 -1 0 -63z"/>
<path d="M2540 94 c0 -77 3 -94 15 -94 10 0 15 10 15 30 0 27 2 29 29 24 54
-11 91 60 61 117 -9 15 -21 19 -65 18 l-55 -2 0 -93z m100 56 c22 -41 -13 -90
-49 -70 -21 11 -27 43 -15 74 9 23 51 20 64 -4z"/>
<path d="M2740 93 c0 -55 4 -93 10 -93 6 0 10 14 10 30 0 30 1 31 34 25 28 -6
36 -3 55 20 25 33 27 62 5 93 -13 18 -24 22 -65 21 l-49 -2 0 -94z m93 56 c13
-21 1 -65 -19 -73 -19 -7 -54 20 -54 41 0 47 50 69 73 32z"/>
<path d="M2930 123 c0 -49 3 -63 15 -63 11 0 15 11 15 39 0 49 8 71 26 71 8 0
14 4 14 9 0 5 -16 9 -35 8 l-35 -1 0 -63z"/>
<path d="M3067 172 c-39 -42 -7 -122 48 -122 52 0 83 68 55 121 -14 26 -80 26
-103 1z m88 -32 c6 -19 -17 -70 -31 -70 -24 0 -44 24 -44 55 0 56 58 68 75 15z"/>
<path d="M3254 128 c31 -82 50 -83 82 -4 28 70 28 66 10 66 -8 0 -22 -22 -32
-52 l-17 -53 -17 50 c-10 29 -24 51 -33 53 -14 3 -13 -5 7 -60z"/>
<path d="M3427 172 c-50 -55 8 -142 77 -116 23 9 20 27 -4 19 -24 -8 -60 11
-60 30 0 11 12 15 45 15 48 0 56 11 35 51 -14 25 -71 26 -93 1z m61 -4 c19
-19 14 -28 -18 -28 -16 0 -30 4 -30 8 0 9 21 32 30 32 3 0 11 -5 18 -12z"/>
</g>
</svg>
