<?xml version="1.0" encoding="utf-8"?>
<!-- Generator: Adobe Illustrator 24.1.1, SVG Export Plug-In . SVG Version: 6.00 Build 0)  -->
<svg version="1.1" xmlns="http://www.w3.org/2000/svg" xmlns:xlink="http://www.w3.org/1999/xlink" x="0px" y="0px"
	 viewBox="0 0 841.89 595.28" style="enable-background:new 0 0 841.89 595.28;" xml:space="preserve">
<style type="text/css">
	.st0{fill:#8BD7F8;stroke:#283894;stroke-miterlimit:10;}
	.st1{fill:#D1D3D4;stroke:#283894;stroke-miterlimit:10;}
	.st2{fill:#FFFFFF;stroke:#283894;stroke-miterlimit:10;}
	.st3{fill:url(#SVGID_1_);}
	.st4{fill:url(#SVGID_2_);}
	.st5{fill:url(#SVGID_3_);}
	.st6{fill:url(#SVGID_4_);}
	.st7{fill:url(#SVGID_5_);}
	.st8{fill:url(#SVGID_6_);}
	.st9{fill:url(#SVGID_7_);}
	.st10{fill:url(#SVGID_8_);}
	.st11{fill:url(#SVGID_9_);}
	.st12{fill:url(#SVGID_10_);}
	.st13{fill:url(#SVGID_11_);}
	.st14{fill:url(#SVGID_12_);}
	.st15{fill:url(#SVGID_13_);}
	.st16{fill:url(#SVGID_14_);}
	.st17{fill:url(#SVGID_15_);}
	.st18{fill:url(#SVGID_16_);}
	.st19{fill:#2E3192;}
	.st20{font-family:'ErasITC-Bold';}
	.st21{font-size:37.4567px;}
	.st22{fill:#D1D3D4;}
</style>
<g id="Layer_1">
	<path class="st0" d="M516.77,198.32l-114.15,0.22c-4.28,0.01-7.74,3.5-7.72,7.79l1.17,195.27c0.04,6.91,8.43,10.31,13.26,5.37
		L522.78,290.9c1.43-1.46,2.22-3.42,2.21-5.46l-0.48-79.43C524.49,201.75,521.02,198.31,516.77,198.32z"/>
	<path class="st1" d="M510.79,206.26l-100.02,0.6c-2.84,0.02-5.15,2.32-5.17,5.17l-1.36,171.17c0.01,4.74,5.65,7.14,8.87,3.73
		l101.79-101.55c0.99-0.98,1.54-2.32,1.53-3.72l-0.42-70.22C516,208.56,513.66,206.24,510.79,206.26z"/>
	<path class="st0" d="M402.43,198.79l114.14-1.15c4.28-0.04,7.78,3.41,7.81,7.69l1.17,195.27c0.04,6.91-8.3,10.41-13.19,5.53
		L397.53,291.44c-1.44-1.44-2.26-3.39-2.27-5.43l-0.48-79.43C394.76,202.32,398.18,198.84,402.43,198.79z"/>
	<path class="st2" d="M408.4,208.96l100.02-0.6c2.84-0.02,5.17,2.26,5.23,5.1l3.4,171.14c0.09,4.65-5.49,7.08-8.82,3.84l-103-100.33
		c-1-0.97-1.57-2.31-1.57-3.7l-0.42-70.22C403.22,211.32,405.53,208.97,408.4,208.96z"/>
	<path class="st0" d="M257.47,199.29l119.89-1.19c4.5-0.04,8.17,3.41,8.2,7.7l1.17,195.39c0.04,6.92-8.72,10.42-13.86,5.53
		L252.28,292c-1.51-1.44-2.37-3.4-2.38-5.44l-0.48-79.47C249.4,202.82,252.99,199.34,257.47,199.29z"/>
	<path class="st1" d="M263.85,207.16l105.05-0.63c2.99-0.02,5.43,2.26,5.49,5.1l3.52,171.25c0.05,4.74-5.84,7.22-9.27,3.84
		L260.49,286.37c-1.05-0.97-1.64-2.31-1.65-3.7l-0.42-70.26C258.4,209.53,260.83,207.18,263.85,207.16z"/>
	<path class="st0" d="M377.55,198.37l-119.89,0.25c-4.5,0.01-8.13,3.5-8.11,7.79l1.17,195.39c0.04,6.92,8.85,10.31,13.92,5.37
		L383.84,291c1.5-1.46,2.33-3.42,2.32-5.47l-0.48-79.47C385.66,201.8,382.02,198.36,377.55,198.37z"/>
	<path class="st2" d="M371.41,208.61l-105.05,0.63c-2.99,0.02-5.41,2.32-5.43,5.17l-1.48,171.28c-0.04,4.66,5.86,7.02,9.31,3.73
		l106.94-101.65c1.04-0.99,1.62-2.33,1.61-3.72l-0.42-70.26C376.88,210.91,374.42,208.59,371.41,208.61z"/>
	<g>
		<g>
			<linearGradient id="SVGID_1_" gradientUnits="userSpaceOnUse" x1="108.3316" y1="438.9375" x2="108.8316" y2="438.9375">
				<stop  offset="0" style="stop-color:#FFFFFF"/>
				<stop  offset="0" style="stop-color:#000000"/>
			</linearGradient>
			<path class="st3" d="M250.72,449.87c0.16-2.68,0.26-4.79,0.32-6.33c0.08-2.1,0.15-4.97,0.22-8.63c0.07-3.66,0.11-6.24,0.11-7.74
				c0-0.54,0-1.29-0.01-2.27c1,0.04,1.8,0.05,2.39,0.05c0.82,0,1.78-0.03,2.87-0.08c1.09-0.05,2.03-0.08,2.81-0.08
				c0.94,0,1.61,0.04,2.01,0.13c0.53,0.11,0.99,0.3,1.39,0.58c0.4,0.28,0.73,0.63,0.99,1.04c0.29,0.49,0.52,1.07,0.69,1.76
				c0.19,0.78,0.28,1.62,0.28,2.51c0,0.7-0.06,1.36-0.16,1.99c-0.11,0.63-0.26,1.2-0.46,1.69s-0.42,0.91-0.67,1.23
				c-0.25,0.33-0.49,0.58-0.73,0.77c-0.24,0.18-0.56,0.37-0.96,0.55c0.4,0.11,0.72,0.24,0.96,0.38c0.24,0.14,0.5,0.37,0.77,0.68
				c0.27,0.31,0.52,0.71,0.74,1.2c0.22,0.49,0.38,1.03,0.49,1.64c0.11,0.6,0.16,1.24,0.16,1.91c0,0.93-0.09,1.8-0.28,2.62
				c-0.19,0.82-0.45,1.52-0.79,2.1c-0.29,0.5-0.66,0.93-1.12,1.28c-0.46,0.35-0.93,0.6-1.41,0.73c-0.39,0.1-1.11,0.17-2.14,0.22
				c-1.04,0.05-2.13,0.07-3.3,0.07l-2.97-0.02L250.72,449.87z M255.5,444.85h2.17c0.57,0,1-0.05,1.27-0.16
				c0.33-0.13,0.58-0.31,0.76-0.53c0.17-0.22,0.31-0.52,0.41-0.9c0.1-0.38,0.15-0.8,0.15-1.26c0-0.4-0.04-0.76-0.12-1.06
				s-0.21-0.56-0.37-0.77c-0.17-0.21-0.37-0.36-0.61-0.45s-0.62-0.14-1.13-0.14h-2.39L255.5,444.85z M255.76,434.63h1.61
				c0.53,0,0.9-0.02,1.13-0.06c0.22-0.04,0.44-0.12,0.65-0.23c0.21-0.11,0.39-0.29,0.55-0.55s0.26-0.54,0.33-0.86
				c0.06-0.32,0.1-0.63,0.1-0.95c0-0.45-0.07-0.85-0.2-1.21s-0.34-0.62-0.64-0.79c-0.29-0.17-0.74-0.26-1.35-0.26h-2.04
				L255.76,434.63z"/>
			<linearGradient id="SVGID_2_" gradientUnits="userSpaceOnUse" x1="108.3316" y1="438.9375" x2="108.8316" y2="438.9375">
				<stop  offset="0" style="stop-color:#FFFFFF"/>
				<stop  offset="0" style="stop-color:#000000"/>
			</linearGradient>
			<path class="st4" d="M276.45,424.42c1.21,0,2.37,0.26,3.48,0.79c1.12,0.52,2.09,1.36,2.93,2.51s1.46,2.48,1.88,3.98
				c0.41,1.5,0.62,3.22,0.62,5.18c0,2.05-0.23,3.93-0.68,5.64s-1.11,3.17-1.97,4.36c-0.86,1.2-1.88,2.07-3.08,2.63
				s-2.43,0.83-3.72,0.83c-1.27,0-2.5-0.27-3.66-0.81c-1.17-0.54-2.18-1.42-3.05-2.63c-0.86-1.21-1.48-2.56-1.84-4.05
				c-0.36-1.49-0.54-3.14-0.54-4.96c0-2.67,0.38-5.01,1.15-7.03c0.76-2.02,1.9-3.59,3.4-4.73
				C272.87,424.99,274.56,424.42,276.45,424.42z M276.24,429.93c-0.87,0-1.65,0.34-2.35,1.03c-0.7,0.69-1.24,1.65-1.62,2.87
				c-0.38,1.22-0.57,2.54-0.57,3.94c0,1.29,0.17,2.47,0.51,3.55c0.34,1.07,0.86,1.91,1.57,2.51s1.44,0.91,2.23,0.91
				c0.84,0,1.6-0.34,2.3-1.01s1.23-1.63,1.59-2.85s0.55-2.51,0.55-3.85c0-1.3-0.17-2.51-0.51-3.61c-0.34-1.1-0.84-1.96-1.49-2.57
				C277.8,430.23,277.06,429.93,276.24,429.93z"/>
			<linearGradient id="SVGID_3_" gradientUnits="userSpaceOnUse" x1="108.3316" y1="438.9375" x2="108.8316" y2="438.9375">
				<stop  offset="0" style="stop-color:#FFFFFF"/>
				<stop  offset="0" style="stop-color:#000000"/>
			</linearGradient>
			<path class="st5" d="M296.5,424.42c1.21,0,2.37,0.26,3.48,0.79c1.12,0.52,2.09,1.36,2.93,2.51s1.46,2.48,1.88,3.98
				c0.41,1.5,0.62,3.22,0.62,5.18c0,2.05-0.23,3.93-0.68,5.64s-1.11,3.17-1.97,4.36c-0.86,1.2-1.88,2.07-3.08,2.63
				s-2.43,0.83-3.72,0.83c-1.27,0-2.5-0.27-3.66-0.81c-1.17-0.54-2.18-1.42-3.05-2.63c-0.86-1.21-1.48-2.56-1.84-4.05
				c-0.36-1.49-0.54-3.14-0.54-4.96c0-2.67,0.38-5.01,1.15-7.03c0.76-2.02,1.9-3.59,3.4-4.73
				C292.92,424.99,294.62,424.42,296.5,424.42z M296.3,429.93c-0.87,0-1.65,0.34-2.35,1.03c-0.7,0.69-1.24,1.65-1.62,2.87
				c-0.38,1.22-0.57,2.54-0.57,3.94c0,1.29,0.17,2.47,0.51,3.55c0.34,1.07,0.86,1.91,1.57,2.51s1.44,0.91,2.23,0.91
				c0.84,0,1.6-0.34,2.3-1.01s1.23-1.63,1.59-2.85s0.55-2.51,0.55-3.85c0-1.3-0.17-2.51-0.51-3.61c-0.34-1.1-0.84-1.96-1.49-2.57
				C297.86,430.23,297.12,429.93,296.3,429.93z"/>
			<linearGradient id="SVGID_4_" gradientUnits="userSpaceOnUse" x1="108.3316" y1="438.9375" x2="108.8316" y2="438.9375">
				<stop  offset="0" style="stop-color:#FFFFFF"/>
				<stop  offset="0" style="stop-color:#000000"/>
			</linearGradient>
			<path class="st6" d="M307.11,449.87c0.19-2.88,0.33-5.22,0.41-7.04c0.16-3.32,0.28-6.61,0.36-9.89s0.12-5.95,0.12-8.04
				c1.02,0.02,1.93,0.04,2.72,0.04c0.53,0,1.3-0.01,2.3-0.04l-0.27,6.62l-0.34,10.35l-0.05,2.54c1.3,0.04,2.14,0.05,2.53,0.05
				c1.98,0,3.48-0.04,4.5-0.13l-0.25,5.52c-1.98-0.02-3.87-0.04-5.66-0.04C311.06,449.83,308.93,449.84,307.11,449.87z"/>
			<linearGradient id="SVGID_5_" gradientUnits="userSpaceOnUse" x1="108.3316" y1="438.9375" x2="108.8316" y2="438.9375">
				<stop  offset="0" style="stop-color:#FFFFFF"/>
				<stop  offset="0" style="stop-color:#000000"/>
			</linearGradient>
			<path class="st7" d="M320.78,449.87c0.19-3.15,0.33-5.78,0.41-7.9c0.09-2.12,0.17-4.94,0.26-8.46s0.13-5.85,0.13-7l-0.01-1.61
				c1.78,0.02,3.93,0.04,6.46,0.04c2.33,0,4.38-0.01,6.16-0.04l-0.02,0.6c-0.01,0.15-0.03,0.67-0.06,1.59l-0.07,1.99
				c-0.02,0.43-0.02,0.86-0.02,1.29c-1.45-0.1-2.68-0.15-3.66-0.15c-1.08,0-1.82,0-2.2,0.01c-0.38,0.01-0.97,0.03-1.78,0.08
				l-0.14,4.21c0.89,0.04,1.93,0.05,3.11,0.05c0.42,0,1.55-0.04,3.37-0.13c-0.08,1.56-0.15,3.42-0.21,5.58
				c-1.3-0.02-2.31-0.04-3.01-0.04c-1.04,0-2.2,0.04-3.49,0.13l-0.13,4.44h1.3c0.38,0,1.18-0.02,2.38-0.05l2.34-0.09
				c0.35-0.01,0.93-0.06,1.74-0.15c-0.09,1.8-0.17,3.67-0.23,5.6c-1.84-0.02-3.86-0.04-6.05-0.04l-4.97,0.02L320.78,449.87z"/>
			<linearGradient id="SVGID_6_" gradientUnits="userSpaceOnUse" x1="108.3316" y1="438.9375" x2="108.8316" y2="438.9375">
				<stop  offset="0" style="stop-color:#FFFFFF"/>
				<stop  offset="0" style="stop-color:#000000"/>
			</linearGradient>
			<path class="st8" d="M334.03,449.87l0.94-2.63l5.85-17.81l0.62-1.99c0.18-0.58,0.43-1.43,0.76-2.52
				c1.33,0.02,2.29,0.04,2.91,0.04c1.06,0,2.05-0.01,2.95-0.04l1.65,7.63l3.36,14.67l0.66,2.67c-1.31-0.02-2.1-0.04-2.38-0.04
				c-0.63,0-1.57,0.01-2.8,0.04c-0.33-2.01-0.81-4.38-1.43-7.1h-5.69c-0.66,2.15-1.33,4.51-2.03,7.1c-1.4-0.02-2.26-0.04-2.58-0.04
				C336.23,449.83,335.3,449.84,334.03,449.87z M342.78,437.45h3.51c-0.87-4.3-1.35-6.66-1.43-7.1c-0.5,1.79-0.92,3.26-1.26,4.4
				L342.78,437.45z"/>
			<linearGradient id="SVGID_7_" gradientUnits="userSpaceOnUse" x1="108.3316" y1="438.9375" x2="108.8316" y2="438.9375">
				<stop  offset="0" style="stop-color:#FFFFFF"/>
				<stop  offset="0" style="stop-color:#000000"/>
			</linearGradient>
			<path class="st9" d="M354.91,449.87l0.23-3.84l0.44-13.02l0.12-5.25v-2.85c1.17,0.02,2.2,0.04,3.1,0.04
				c0.64,0,1.54-0.01,2.71-0.04l4.83,14.2l0.67,2.08c0.08-2.05,0.17-4.92,0.26-8.62c0.09-3.7,0.13-6.25,0.13-7.67
				c0.93,0.02,1.67,0.04,2.23,0.04c0.26,0,0.99-0.01,2.21-0.04l-0.27,5.45l-0.51,15.14l-0.07,4.37c-0.98-0.02-1.9-0.04-2.75-0.04
				c-0.71,0-1.69,0.01-2.94,0.04c-0.39-1.2-0.68-2.06-0.87-2.6l-1.9-5.21c-0.62-1.71-1.2-3.34-1.73-4.9
				c-0.35-0.99-0.7-2.07-1.07-3.26l-0.24,8.67l-0.12,7.3c-0.93-0.02-1.65-0.04-2.13-0.04C356.82,449.83,356.05,449.84,354.91,449.87
				z"/>
			<linearGradient id="SVGID_8_" gradientUnits="userSpaceOnUse" x1="108.3316" y1="438.9375" x2="108.8316" y2="438.9375">
				<stop  offset="0" style="stop-color:#FFFFFF"/>
				<stop  offset="0" style="stop-color:#000000"/>
			</linearGradient>
			<path class="st10" d="M377.67,449.87l0.94-2.63l5.85-17.81l0.62-1.99c0.18-0.58,0.43-1.43,0.76-2.52
				c1.33,0.02,2.29,0.04,2.91,0.04c1.06,0,2.05-0.01,2.95-0.04l1.65,7.63l3.36,14.67l0.66,2.67c-1.31-0.02-2.1-0.04-2.38-0.04
				c-0.63,0-1.57,0.01-2.8,0.04c-0.33-2.01-0.81-4.38-1.43-7.1h-5.69c-0.66,2.15-1.33,4.51-2.03,7.1c-1.4-0.02-2.26-0.04-2.58-0.04
				C379.87,449.83,378.94,449.84,377.67,449.87z M386.42,437.45h3.51c-0.87-4.3-1.35-6.66-1.43-7.1c-0.5,1.79-0.92,3.26-1.26,4.4
				L386.42,437.45z"/>
			<linearGradient id="SVGID_9_" gradientUnits="userSpaceOnUse" x1="108.3316" y1="438.9375" x2="108.8316" y2="438.9375">
				<stop  offset="0" style="stop-color:#FFFFFF"/>
				<stop  offset="0" style="stop-color:#000000"/>
			</linearGradient>
			<path class="st11" d="M399.22,424.9c1.18,0.02,2,0.04,2.49,0.04c0.6,0,1.41-0.01,2.41-0.04l-0.34,7.77
				c-0.07,1.46-0.12,2.83-0.15,4.12s-0.05,2.17-0.05,2.65c0,0.93,0.04,1.7,0.12,2.32c0.08,0.62,0.23,1.15,0.45,1.58
				c0.22,0.43,0.52,0.76,0.91,0.98c0.39,0.22,0.79,0.33,1.21,0.33c0.36,0,0.7-0.08,1.02-0.24c0.25-0.13,0.47-0.31,0.67-0.54
				c0.17-0.22,0.32-0.47,0.45-0.76c0.16-0.35,0.3-0.78,0.42-1.31c0.12-0.49,0.21-1.13,0.27-1.92c0.07-0.8,0.16-2.61,0.27-5.44
				c0.1-2.41,0.17-4.62,0.23-6.62c0.04-1.95,0.09-2.92,0.12-2.92c1.14,0,2.04,0,2.69,0h2.29l-0.55,12.99
				c-0.01,0.24-0.01,0.45-0.01,0.6c-0.03,2.54-0.13,4.33-0.29,5.37c-0.16,1.04-0.43,1.95-0.81,2.72c-0.38,0.77-0.93,1.46-1.65,2.08
				c-0.72,0.62-1.55,1.05-2.47,1.31c-0.92,0.26-1.85,0.38-2.79,0.38c-0.84,0-1.66-0.1-2.44-0.29c-0.72-0.19-1.38-0.48-1.96-0.85
				c-0.58-0.37-1.09-0.81-1.52-1.31c-0.39-0.46-0.69-0.94-0.9-1.42c-0.21-0.48-0.38-1.06-0.5-1.73c-0.14-0.76-0.2-1.57-0.2-2.43
				c0-0.29,0.01-0.73,0.02-1.33c0.02-0.59,0.05-1.44,0.1-2.55l0.15-2.93c0.04-0.77,0.08-1.9,0.13-3.38L399.22,424.9z"/>
			<linearGradient id="SVGID_10_" gradientUnits="userSpaceOnUse" x1="108.3316" y1="438.9375" x2="108.8316" y2="438.9375">
				<stop  offset="0" style="stop-color:#FFFFFF"/>
				<stop  offset="0" style="stop-color:#000000"/>
			</linearGradient>
			<path class="st12" d="M419.98,449.87c0.37-5.93,0.6-12.45,0.67-19.57l-4.81,0.2l0.06-2.03c0.03-1.08,0.05-2.27,0.07-3.57
				c2.14,0.02,4.63,0.04,7.48,0.04l2.79-0.02h2.71l1.47-0.02l-0.07,1.79c-0.03,0.96-0.05,1.75-0.06,2.38
				c-0.01,0.63-0.02,1.1-0.02,1.42c-1.61-0.13-2.94-0.2-3.99-0.2h-0.79c-0.11,2.15-0.2,4.14-0.26,5.97
				c-0.08,2.62-0.15,5.16-0.19,7.62c-0.05,2.46-0.07,4.46-0.07,5.98c-1.24-0.02-2.04-0.04-2.4-0.04
				C422.25,449.83,421.38,449.84,419.98,449.87z"/>
			<linearGradient id="SVGID_11_" gradientUnits="userSpaceOnUse" x1="108.3316" y1="438.9375" x2="108.8316" y2="438.9375">
				<stop  offset="0" style="stop-color:#FFFFFF"/>
				<stop  offset="0" style="stop-color:#000000"/>
			</linearGradient>
			<path class="st13" d="M440.58,424.42c1.21,0,2.37,0.26,3.48,0.79c1.12,0.52,2.09,1.36,2.93,2.51s1.46,2.48,1.88,3.98
				c0.41,1.5,0.62,3.22,0.62,5.18c0,2.05-0.23,3.93-0.68,5.64s-1.11,3.17-1.97,4.36c-0.86,1.2-1.88,2.07-3.08,2.63
				c-1.19,0.55-2.43,0.83-3.72,0.83c-1.27,0-2.5-0.27-3.66-0.81c-1.17-0.54-2.18-1.42-3.05-2.63c-0.86-1.21-1.48-2.56-1.84-4.05
				c-0.36-1.49-0.54-3.14-0.54-4.96c0-2.67,0.38-5.01,1.15-7.03c0.76-2.02,1.9-3.59,3.4-4.73
				C437,424.99,438.69,424.42,440.58,424.42z M440.37,429.93c-0.87,0-1.65,0.34-2.35,1.03c-0.7,0.69-1.24,1.65-1.62,2.87
				c-0.38,1.22-0.57,2.54-0.57,3.94c0,1.29,0.17,2.47,0.51,3.55c0.34,1.07,0.87,1.91,1.57,2.51s1.44,0.91,2.23,0.91
				c0.84,0,1.6-0.34,2.3-1.01s1.23-1.63,1.59-2.85s0.55-2.51,0.55-3.85c0-1.3-0.17-2.51-0.51-3.61c-0.34-1.1-0.84-1.96-1.49-2.57
				C441.93,430.23,441.19,429.93,440.37,429.93z"/>
			<linearGradient id="SVGID_12_" gradientUnits="userSpaceOnUse" x1="108.3316" y1="438.9375" x2="108.8316" y2="438.9375">
				<stop  offset="0" style="stop-color:#FFFFFF"/>
				<stop  offset="0" style="stop-color:#000000"/>
			</linearGradient>
			<path class="st14" d="M464.66,443.77c-0.09,0.72-0.2,1.72-0.33,3c-0.13,1.28-0.21,2.28-0.26,2.98c-1.61,0.39-3.05,0.58-4.32,0.58
				c-1.22,0-2.36-0.25-3.41-0.74c-1.05-0.49-2.02-1.3-2.89-2.43s-1.51-2.45-1.88-3.98c-0.38-1.52-0.57-3.23-0.57-5.12
				c0-2.21,0.25-4.19,0.76-5.95c0.51-1.76,1.24-3.23,2.19-4.41s2-2.02,3.14-2.52c1.14-0.51,2.31-0.76,3.53-0.76
				c1.12,0,2.5,0.23,4.14,0.7l0.02,1.54c0.01,0.67,0.04,1.41,0.07,2.21l0.08,2.08c-0.88-0.34-1.6-0.57-2.14-0.7
				c-0.55-0.12-1.05-0.18-1.52-0.18c-1.02,0-1.93,0.33-2.75,0.99c-0.81,0.66-1.46,1.62-1.92,2.87c-0.47,1.26-0.7,2.65-0.7,4.17
				c0,1.39,0.2,2.58,0.59,3.58c0.39,0.99,0.92,1.76,1.59,2.3s1.49,0.81,2.47,0.81c0.54,0,1.12-0.07,1.75-0.21
				C462.92,444.45,463.71,444.18,464.66,443.77z"/>
			<linearGradient id="SVGID_13_" gradientUnits="userSpaceOnUse" x1="108.3316" y1="438.9375" x2="108.8316" y2="438.9375">
				<stop  offset="0" style="stop-color:#FFFFFF"/>
				<stop  offset="0" style="stop-color:#000000"/>
			</linearGradient>
			<path class="st15" d="M466.79,449.87c0.14-2.15,0.26-4.08,0.34-5.8c0.08-1.72,0.16-3.71,0.21-5.98c0.06-2.27,0.11-4.66,0.14-7.18
				s0.04-4.52,0.04-6.01c0.94,0.04,1.7,0.05,2.28,0.05c0.6,0,1.34-0.03,2.2-0.08c0.87-0.05,1.71-0.08,2.53-0.08
				c0.96,0,1.82,0.06,2.58,0.18c0.57,0.08,1.08,0.26,1.54,0.53s0.85,0.59,1.17,0.98s0.58,0.81,0.79,1.29s0.38,1.03,0.49,1.67
				c0.12,0.64,0.17,1.33,0.17,2.06c0,0.82-0.06,1.58-0.19,2.29c-0.13,0.71-0.33,1.38-0.61,2.01s-0.62,1.17-1.04,1.63
				s-1,0.92-1.76,1.4l0.59,2.32c0.17,0.65,0.34,1.3,0.53,1.98l1.51,5.36c0.07,0.23,0.19,0.69,0.36,1.37
				c-1.24-0.02-2.08-0.04-2.51-0.04c-0.54,0-1.43,0.01-2.67,0.04c-0.12-0.63-0.34-1.81-0.66-3.53c-0.13-0.72-0.24-1.27-0.33-1.66
				c-0.18-0.87-0.45-2.08-0.8-3.64l-1.17-5.18c0.41,0.12,0.81,0.18,1.2,0.18c0.55,0,1.05-0.13,1.5-0.4
				c0.45-0.27,0.79-0.68,1.02-1.24c0.23-0.56,0.34-1.15,0.34-1.77c0-0.52-0.09-0.98-0.26-1.38c-0.17-0.4-0.45-0.69-0.82-0.89
				s-0.95-0.29-1.72-0.29c-0.26,0-0.54,0.01-0.82,0.03c-0.28,0.02-0.61,0.03-0.99,0.05c-0.1,2.5-0.18,5.55-0.26,9.14
				c-0.07,3.6-0.12,7.13-0.15,10.59c-1.26-0.02-2.08-0.04-2.46-0.04C468.72,449.83,467.93,449.84,466.79,449.87z"/>
			<linearGradient id="SVGID_14_" gradientUnits="userSpaceOnUse" x1="108.3316" y1="438.9375" x2="108.8316" y2="438.9375">
				<stop  offset="0" style="stop-color:#FFFFFF"/>
				<stop  offset="0" style="stop-color:#000000"/>
			</linearGradient>
			<path class="st16" d="M481.02,449.87l0.94-2.63l5.85-17.81l0.62-1.99c0.18-0.58,0.43-1.43,0.76-2.52
				c1.33,0.02,2.29,0.04,2.91,0.04c1.06,0,2.05-0.01,2.95-0.04l1.65,7.63l3.36,14.67l0.66,2.67c-1.31-0.02-2.1-0.04-2.38-0.04
				c-0.63,0-1.57,0.01-2.8,0.04c-0.33-2.01-0.81-4.38-1.43-7.1h-5.69c-0.66,2.15-1.33,4.51-2.03,7.1c-1.4-0.02-2.26-0.04-2.58-0.04
				C483.22,449.83,482.29,449.84,481.02,449.87z M489.77,437.45h3.51c-0.87-4.3-1.35-6.66-1.43-7.1c-0.5,1.79-0.92,3.26-1.26,4.4
				L489.77,437.45z"/>
			<linearGradient id="SVGID_15_" gradientUnits="userSpaceOnUse" x1="108.3316" y1="438.9375" x2="108.8316" y2="438.9375">
				<stop  offset="0" style="stop-color:#FFFFFF"/>
				<stop  offset="0" style="stop-color:#000000"/>
			</linearGradient>
			<path class="st17" d="M505.32,449.87c0.38-5.93,0.6-12.45,0.67-19.57l-4.81,0.2l0.06-2.03c0.03-1.08,0.05-2.27,0.07-3.57
				c2.14,0.02,4.63,0.04,7.48,0.04l2.79-0.02h2.71l1.47-0.02l-0.07,1.79c-0.03,0.96-0.05,1.75-0.06,2.38
				c-0.01,0.63-0.02,1.1-0.02,1.42c-1.61-0.13-2.94-0.2-3.99-0.2h-0.79c-0.11,2.15-0.2,4.14-0.26,5.97
				c-0.08,2.62-0.15,5.16-0.19,7.62s-0.07,4.46-0.07,5.98c-1.24-0.02-2.03-0.04-2.4-0.04C507.6,449.83,506.73,449.84,505.32,449.87z
				"/>
			<linearGradient id="SVGID_16_" gradientUnits="userSpaceOnUse" x1="108.3316" y1="438.9375" x2="108.8316" y2="438.9375">
				<stop  offset="0" style="stop-color:#FFFFFF"/>
				<stop  offset="0" style="stop-color:#000000"/>
			</linearGradient>
			<path class="st18" d="M516.45,449.48c-0.1-2.6-0.21-4.68-0.34-6.24c0.85,0.61,1.6,1.03,2.26,1.27c0.66,0.24,1.24,0.36,1.74,0.36
				c0.66,0,1.18-0.16,1.57-0.47c0.39-0.31,0.58-0.77,0.58-1.38c0-0.21-0.02-0.41-0.06-0.59c-0.04-0.19-0.11-0.4-0.22-0.64
				c-0.11-0.24-0.26-0.5-0.45-0.78l-2.13-3c-0.5-0.68-0.85-1.18-1.04-1.48c-0.4-0.62-0.71-1.2-0.93-1.74
				c-0.22-0.54-0.39-1.08-0.49-1.64c-0.1-0.55-0.15-1.14-0.15-1.77c0-0.74,0.08-1.47,0.24-2.19c0.16-0.71,0.41-1.38,0.73-2
				c0.32-0.62,0.75-1.16,1.29-1.61c0.54-0.45,1.11-0.76,1.72-0.92c0.61-0.17,1.24-0.25,1.89-0.25c1.27,0,2.66,0.24,4.16,0.71
				c0.02,0.84,0.05,1.61,0.08,2.31c0.03,0.7,0.1,1.93,0.21,3.69c-0.69-0.45-1.33-0.76-1.9-0.94c-0.57-0.18-1.07-0.27-1.48-0.27
				c-0.59,0-1.08,0.18-1.46,0.53c-0.39,0.35-0.58,0.79-0.58,1.32c0,0.24,0.03,0.48,0.09,0.71c0.06,0.23,0.17,0.5,0.34,0.81
				c0.17,0.31,0.38,0.65,0.66,1.02c0.27,0.37,0.7,0.92,1.28,1.66l0.81,1.04c0.24,0.32,0.5,0.7,0.78,1.15
				c0.28,0.45,0.52,0.9,0.72,1.33c0.2,0.44,0.36,0.84,0.47,1.21c0.11,0.37,0.19,0.73,0.24,1.11c0.05,0.37,0.08,0.77,0.08,1.2
				c0,1.1-0.16,2.14-0.49,3.14c-0.32,0.99-0.78,1.81-1.38,2.45c-0.6,0.64-1.25,1.09-1.96,1.34c-0.71,0.26-1.46,0.38-2.26,0.38
				C519.85,450.34,518.31,450.05,516.45,449.48z"/>
		</g>
		<text transform="matrix(0.6182 0 0 1 249.5484 449.8652)" class="st19 st20 st21">BOOLEAN AUTOCRATS</text>
	</g>
	<rect x="242.94" y="435.28" class="st22" width="2.89" height="20.2"/>
	<rect x="530.59" y="419.2" class="st22" width="2.89" height="20.2"/>
	<rect x="438.27" y="417.83" class="st22" width="95.21" height="2.74"/>
	<rect x="242.94" y="454.11" class="st22" width="95.21" height="2.74"/>
</g>
<g id="Layer_2">
</g>
</svg>
