<?xml version="1.0" standalone="no"?>
<!DOCTYPE svg PUBLIC "-//W3C//DTD SVG 20010904//EN"
 "http://www.w3.org/TR/2001/REC-SVG-20010904/DTD/svg10.dtd">
<svg version="1.0" xmlns="http://www.w3.org/2000/svg"
 width="512.000000pt" height="512.000000pt" viewBox="0 0 512.000000 512.000000"
 preserveAspectRatio="xMidYMid meet">
<metadata>
Created by potrace 1.16, written by Peter Selinger 2001-2019
</metadata>
<g transform="translate(0.000000,512.000000) scale(0.100000,-0.100000)"
fill="#000000" stroke="none">
<path d="M603 5106 c-103 -33 -193 -113 -242 -216 l-26 -55 0 -2275 0 -2275
26 -55 c38 -81 109 -154 187 -192 66 -33 67 -33 238 -36 l171 -4 22 28 c25 32
22 66 -11 101 -18 19 -31 21 -166 25 -140 3 -149 4 -194 31 -26 15 -59 43 -74
62 -57 75 -54 -1 -54 1642 l0 1513 2078 -2 2077 -3 3 -1510 c2 -1698 7 -1580
-72 -1659 -82 -82 61 -76 -1752 -76 -887 0 -1620 -3 -1629 -6 -19 -8 -45 -55
-45 -84 0 -11 9 -29 20 -40 20 -20 29 -20 1683 -18 l1662 3 67 33 c78 38 149
110 187 192 l26 55 0 2275 0 2275 -26 55 c-38 82 -109 154 -187 192 l-67 33
-1930 2 c-1576 1 -1938 -1 -1972 -11z m2866 -585 c7 -15 24 -33 37 -40 17 -7
145 -11 409 -11 l385 0 0 -295 0 -295 -1745 0 -1745 0 0 295 0 295 1223 0
c1337 0 1255 -4 1277 56 9 22 15 24 79 24 66 0 69 -1 80 -29z"/>
<path d="M799 3190 c-48 -25 -92 -69 -115 -117 -17 -35 -19 -68 -22 -406 -3
-409 0 -439 59 -510 17 -21 50 -48 72 -60 41 -22 48 -22 442 -22 l400 0 48 28
c60 36 103 93 117 160 8 35 11 169 8 412 -3 346 -4 362 -24 400 -29 54 -70 94
-119 116 -37 17 -73 19 -435 18 -370 0 -397 -1 -431 -19z m826 -155 l25 -24 0
-365 0 -365 -24 -28 -24 -28 -344 -3 c-222 -2 -356 0 -379 7 -63 19 -64 23
-64 423 l0 360 28 24 28 24 365 0 365 0 24 -25z"/>
<path d="M1203 2875 c-36 -15 -43 -31 -43 -101 l0 -54 -60 0 c-46 0 -64 -4
-80 -20 -31 -31 -36 -68 -13 -98 18 -24 28 -27 87 -30 l66 -3 0 -60 c0 -50 4
-64 25 -84 13 -14 36 -25 50 -25 14 0 37 11 50 25 21 20 25 34 25 84 l0 60 66
3 c59 3 69 6 87 30 23 31 18 67 -15 98 -17 15 -35 20 -80 20 l-58 0 0 56 c0
30 -4 64 -10 74 -15 28 -61 40 -97 25z"/>
<path d="M2122 3189 c-52 -26 -105 -86 -120 -138 -8 -26 -12 -158 -12 -417 0
-346 2 -383 19 -419 23 -51 98 -118 149 -133 27 -8 154 -12 404 -12 409 0 423
2 492 68 76 73 76 69 76 502 0 383 0 385 -24 435 -25 54 -71 100 -123 122 -25
10 -118 13 -425 13 -380 0 -394 -1 -436 -21z m825 -153 l28 -24 3 -356 c3
-405 3 -407 -68 -426 -26 -7 -160 -10 -381 -8 l-341 3 -24 28 -24 28 0 355 c0
363 2 383 39 411 12 9 109 12 378 13 l362 0 28 -24z"/>
<path d="M2346 2699 c-33 -26 -36 -79 -6 -109 19 -19 33 -20 220 -20 187 0
201 1 220 20 30 30 27 83 -6 109 -25 20 -40 21 -214 21 -174 0 -189 -1 -214
-21z"/>
<path d="M3455 3191 c-49 -22 -90 -62 -119 -116 -20 -38 -21 -54 -24 -400 -3
-243 0 -377 8 -412 14 -67 57 -124 117 -160 l48 -28 400 0 c394 0 401 0 442
22 54 29 100 86 118 147 19 62 22 726 4 791 -17 61 -62 118 -117 148 l-50 27
-393 0 c-361 0 -397 -2 -434 -19z"/>
<path d="M840 1881 c-69 -22 -121 -65 -156 -131 -18 -32 -19 -64 -19 -430 0
-395 0 -395 23 -439 29 -54 65 -88 117 -112 37 -17 72 -19 428 -19 427 0 430
0 495 63 19 18 43 50 55 72 21 39 22 53 25 408 3 409 0 439 -59 510 -17 21
-50 48 -72 60 -41 22 -50 22 -427 24 -212 1 -396 -2 -410 -6z m786 -174 l24
-28 0 -359 c0 -197 -3 -366 -6 -375 -16 -42 -45 -45 -419 -45 l-356 0 -24 24
c-14 14 -26 41 -30 67 -3 24 -5 188 -3 364 3 340 5 350 53 374 13 6 150 9 378
8 l359 -2 24 -28z"/>
<path d="M1065 1485 c-36 -35 -32 -68 16 -120 l41 -45 -41 -46 c-23 -26 -41
-55 -41 -65 0 -56 54 -99 101 -80 13 5 40 25 59 45 l34 36 41 -39 c56 -56 86
-61 125 -23 43 44 38 74 -23 139 l-30 32 41 45 c49 53 53 86 17 121 -37 38
-77 33 -128 -14 l-42 -39 -44 39 c-52 47 -90 51 -126 14z"/>
<path d="M2155 1878 c-32 -11 -91 -52 -113 -78 -7 -8 -22 -33 -32 -55 -18 -37
-20 -66 -20 -425 0 -383 0 -385 24 -435 25 -54 71 -100 123 -122 47 -19 799
-19 846 0 52 22 98 68 123 122 24 50 24 52 24 435 0 432 0 430 -75 503 -67 65
-84 67 -499 66 -231 0 -382 -5 -401 -11z m757 -149 c68 -18 69 -23 66 -425
l-3 -356 -28 -24 -28 -24 -362 0 c-269 1 -366 4 -378 13 -37 28 -39 48 -39
409 0 381 1 387 54 408 31 13 673 12 718 -1z"/>
<path d="M2513 1378 c-101 -101 -186 -193 -189 -205 -16 -61 38 -112 96 -91
15 5 106 89 203 186 164 165 177 181 177 214 0 28 -7 42 -26 57 -53 42 -64 35
-261 -161z"/>
<path d="M3478 1876 c-55 -20 -85 -42 -118 -87 -48 -67 -52 -110 -48 -504 3
-347 4 -361 25 -400 12 -22 36 -54 55 -72 65 -63 68 -63 495 -63 355 0 391 2
428 19 49 22 90 62 119 116 20 39 21 54 24 408 3 409 0 439 -59 510 -17 21
-50 48 -72 60 -41 22 -51 22 -427 24 -304 2 -393 0 -422 -11z m775 -148 c46
-24 46 -24 47 -411 l0 -368 -25 -24 -24 -25 -366 0 -366 0 -24 25 -25 24 0
368 c1 385 1 386 45 411 28 16 708 17 738 0z"/>
<path d="M3668 1490 c-24 -25 -29 -36 -23 -58 15 -61 19 -62 241 -62 l203 0
20 26 c24 30 26 43 10 77 -19 41 -48 47 -240 47 l-181 0 -30 -30z"/>
<path d="M3679 1257 c-26 -20 -40 -55 -33 -82 13 -51 32 -55 242 -55 192 0
193 0 217 25 14 13 25 31 25 40 0 24 -27 72 -45 79 -32 12 -389 6 -406 -7z"/>
<path d="M681 534 c-26 -32 -29 -120 -6 -164 20 -39 68 -49 104 -23 24 18 26
27 29 96 2 66 0 79 -18 97 -30 30 -83 27 -109 -6z"/>
<path d="M1015 540 c-23 -25 -32 -119 -16 -159 12 -27 47 -51 75 -51 7 0 25 9
40 21 24 19 26 26 26 95 0 61 -4 78 -20 94 -27 27 -81 26 -105 0z"/>
<path d="M1347 542 c-13 -14 -17 -38 -17 -95 0 -70 2 -77 26 -96 35 -27 57
-26 91 3 26 22 28 30 28 94 0 55 -4 75 -19 91 -25 27 -86 29 -109 3z"/>
</g>
</svg>
