<?xml version="1.0" standalone="no"?>
<!DOCTYPE svg PUBLIC "-//W3C//DTD SVG 20010904//EN"
 "http://www.w3.org/TR/2001/REC-SVG-20010904/DTD/svg10.dtd">
<svg version="1.0" xmlns="http://www.w3.org/2000/svg"
 width="512.000000pt" height="512.000000pt" viewBox="0 0 512.000000 512.000000"
 preserveAspectRatio="xMidYMid meet">
<metadata>
Created by potrace 1.16, written by Peter Selinger 2001-2019
</metadata>
<g transform="translate(0.000000,512.000000) scale(0.100000,-0.100000)"
fill="#000000" stroke="none">
<path d="M2514 4873 c-36 -5 -1772 -926 -1791 -951 -7 -9 -13 -32 -13 -52 0
-34 -2 -37 -76 -73 -70 -35 -78 -37 -93 -22 -36 32 -76 19 -299 -101 -120 -63
-223 -122 -229 -131 -9 -12 -13 -69 -13 -203 0 -179 1 -187 24 -220 18 -28 70
-60 242 -152 l219 -117 5 -853 c5 -788 6 -856 23 -898 50 -126 111 -187 266
-265 119 -59 147 -65 181 -37 26 21 31 81 10 107 -8 9 -55 37 -104 62 -115 57
-149 83 -181 137 -23 40 -46 136 -32 136 4 0 29 -14 56 -30 134 -83 482 -230
706 -298 410 -126 805 -179 1235 -169 241 6 423 24 615 62 66 12 121 22 122
21 2 -2 -5 -43 -15 -91 l-18 -89 -84 -18 c-226 -46 -405 -62 -700 -62 -173 -1
-328 4 -395 12 -287 33 -570 97 -821 183 -78 27 -153 49 -167 49 -36 0 -80
-55 -72 -89 10 -39 23 -49 126 -87 408 -154 992 -248 1424 -229 232 10 556 46
635 70 12 4 14 -6 12 -58 -3 -52 0 -68 20 -96 13 -19 39 -44 58 -55 33 -20 53
-21 372 -24 218 -2 351 1 377 8 50 13 97 59 112 110 10 34 8 61 -20 202 -18
90 -34 171 -37 180 -4 14 22 31 127 83 144 73 210 125 252 203 58 106 57 92
57 993 l0 827 221 118 c287 153 269 129 269 374 0 134 -4 191 -12 203 -10 13
-2197 1186 -2418 1297 -56 28 -121 40 -176 33z m366 -1473 c162 -88 451 -244
642 -347 l348 -188 0 -406 0 -406 -90 0 -90 0 0 353 c0 321 -2 354 -17 372
-10 11 -274 153 -588 317 -313 163 -580 308 -592 322 -13 14 -23 37 -23 54 0
40 48 89 87 89 17 0 142 -62 323 -160z m997 -1526 c48 -36 66 -70 70 -131 5
-69 -16 -116 -67 -150 -72 -50 -154 -42 -216 21 -83 82 -65 213 36 268 46 25
138 21 177 -8z m194 -479 c55 -29 64 -92 20 -136 l-29 -29 -280 0 c-263 0
-281 1 -304 20 -47 36 -41 117 11 145 40 22 539 21 582 0z m399 -178 c0 -46
-33 -120 -71 -158 -32 -32 -236 -147 -244 -137 -3 5 -25 119 -25 134 0 7 64
44 143 82 78 38 151 77 162 85 27 22 35 21 35 -6z m-502 -151 c3 -3 132 -646
132 -658 0 -4 -54 -8 -120 -8 l-120 0 0 140 c0 136 -1 142 -25 165 -30 31 -71
32 -102 3 -22 -21 -23 -28 -23 -165 l0 -143 -126 0 c-115 0 -125 1 -120 18 3
9 32 157 66 327 34 171 63 316 66 324 4 12 35 13 187 7 100 -4 183 -9 185 -10z"/>
</g>
</svg>
