<?xml version="1.0" standalone="no"?>
<!DOCTYPE svg PUBLIC "-//W3C//DTD SVG 20010904//EN"
 "http://www.w3.org/TR/2001/REC-SVG-20010904/DTD/svg10.dtd">
<svg version="1.0" xmlns="http://www.w3.org/2000/svg"
 width="512.000000pt" height="512.000000pt" viewBox="0 0 512.000000 512.000000"
 preserveAspectRatio="xMidYMid meet">
<metadata>
Created by potrace 1.16, written by Peter Selinger 2001-2019
</metadata>
<g transform="translate(0.000000,512.000000) scale(0.100000,-0.100000)"
fill="#000000" stroke="none">
<path d="M799 5092 c-60 -31 -113 -93 -129 -150 -6 -23 -10 -217 -10 -517 l0
-481 -45 -44 c-58 -57 -117 -148 -151 -230 -40 -100 -54 -194 -54 -378 l-1
-167 -51 -30 c-38 -22 -59 -44 -82 -85 l-31 -55 0 -230 c0 -216 1 -232 21
-270 49 -90 117 -131 236 -141 l74 -7 17 -88 c9 -49 28 -117 42 -151 23 -56
25 -74 25 -213 0 -169 9 -211 60 -275 46 -58 118 -90 202 -90 l68 0 0 -89 0
-89 -202 -4 c-187 -4 -209 -6 -283 -31 -242 -80 -428 -281 -489 -528 -13 -52
-16 -118 -16 -317 0 -279 3 -298 63 -361 63 -66 86 -71 339 -71 l227 0 21 27
c24 31 20 65 -12 100 -20 21 -29 22 -229 25 -276 4 -253 -19 -257 256 -2 156
1 226 12 280 31 149 119 281 246 367 107 72 192 97 355 103 150 6 146 16 38
-100 -75 -82 -96 -120 -95 -174 1 -81 8 -88 392 -344 228 -152 369 -240 385
-240 24 0 660 414 718 469 54 50 71 113 47 177 -6 15 -49 70 -96 121 l-86 93
104 0 c195 -1 336 -51 455 -164 l65 -61 -21 -37 c-22 -36 -22 -43 -19 -392 l3
-356 -898 0 -898 0 -24 -25 c-31 -30 -33 -77 -5 -105 20 -20 33 -20 1323 -20
1240 1 1304 1 1342 19 51 23 93 65 116 116 17 36 19 72 19 387 0 237 -4 355
-11 372 -10 22 -8 29 25 67 67 79 79 129 84 342 l4 187 596 0 c556 0 600 2
637 19 60 27 101 66 129 123 l26 52 0 1620 c0 1609 -1 1621 -21 1666 -27 60
-64 98 -124 126 -50 24 -52 24 -416 24 -336 0 -367 -1 -381 -17 -8 -10 -18
-26 -21 -35 -5 -15 -19 -18 -74 -18 -67 0 -68 1 -83 33 l-15 32 -1566 3 -1567
2 -53 -28z m1076 -2005 c73 -69 179 -107 298 -107 l69 0 -4 -347 c-4 -313 -7
-356 -26 -424 -67 -247 -249 -445 -481 -524 -386 -131 -795 57 -948 435 -46
115 -53 186 -53 535 l0 324 363 3 362 3 73 27 c88 32 154 73 213 133 l44 45
30 -37 c17 -21 44 -51 60 -66z m-1295 -362 l0 -255 -61 0 c-54 0 -64 3 -90 29
l-29 29 0 197 0 197 29 29 c26 26 36 29 90 29 l61 0 0 -255z m1942 244 c39
-21 48 -68 48 -242 0 -94 -5 -178 -11 -196 -14 -40 -54 -61 -119 -61 l-50 0 0
255 0 255 56 0 c30 0 64 -5 76 -11z m330 -1041 c-3 -50 2 -72 20 -109 l24 -46
-23 -43 c-31 -59 -31 -140 0 -202 23 -45 23 -45 4 -82 -16 -31 -22 -35 -45
-30 -48 12 -83 34 -102 67 -18 29 -20 51 -20 215 0 192 5 216 48 255 18 16 60
34 87 36 6 1 9 -24 7 -61z m610 29 c51 -29 78 -63 96 -116 8 -23 12 -141 12
-365 0 -374 -2 -383 -76 -444 -54 -45 -88 -52 -243 -52 -125 0 -136 2 -158 22
-30 28 -29 63 2 93 22 23 31 25 124 25 96 0 100 1 120 26 28 35 26 69 -4 99
-23 24 -29 25 -160 25 -122 0 -137 2 -155 20 -29 29 -26 74 6 99 24 19 40 21
160 21 131 0 133 0 153 26 28 35 26 69 -4 99 -23 24 -29 25 -160 25 -122 0
-137 2 -155 20 -29 29 -26 74 6 99 24 19 40 21 160 21 131 0 133 0 153 26 28
35 26 69 -4 99 -23 24 -29 25 -160 25 -122 0 -137 2 -155 20 -29 29 -26 74 8
100 26 21 35 22 207 18 176 -3 181 -4 227 -31z m-2202 -439 c60 -17 104 -21
225 -21 134 0 159 2 238 26 48 15 89 27 92 27 3 0 5 -68 5 -150 l0 -150 -35
-70 -35 -70 -268 0 -268 0 -32 65 c-32 65 -32 66 -32 221 0 145 1 156 18 149
9 -4 51 -16 92 -27z m1328 -98 c27 -57 32 -81 32 -139 0 -39 -2 -71 -5 -71 -3
0 -33 14 -66 31 -109 55 -190 69 -391 69 l-178 0 0 90 0 90 288 0 287 0 33
-70z m277 -178 c6 -8 25 -33 43 -53 32 -37 33 -40 22 -75 -7 -20 -10 -59 -8
-86 l5 -50 -31 6 c-82 16 -116 75 -116 199 l0 88 38 -7 c20 -3 42 -13 47 -22z
m-1691 -397 c63 -131 113 -241 111 -243 -6 -7 -426 279 -423 288 7 21 184 208
190 202 3 -4 58 -115 122 -247z m933 42 c-3 -9 -420 -287 -425 -283 -1 2 50
115 115 251 l118 246 97 -103 c54 -57 96 -106 95 -111z m-462 1 c-18 -40 -62
-133 -97 -206 l-65 -132 -96 200 c-54 110 -97 203 -97 205 0 3 87 5 194 5
l195 0 -34 -72z m1833 -150 l3 -88 -341 0 -340 0 0 90 0 90 338 -2 337 -3 3
-87z m-119 -245 l122 -6 -3 -143 c-4 -205 24 -188 -334 -192 l-285 -3 -29 30
-30 29 0 140 c0 76 3 142 7 145 8 9 393 9 552 0z"/>
<path d="M1102 2777 c-31 -33 -32 -157 -2 -187 25 -25 71 -26 101 -1 21 17 24
27 24 96 0 69 -3 79 -24 96 -32 26 -73 24 -99 -4z"/>
<path d="M1765 2775 c-22 -21 -25 -33 -25 -93 0 -59 3 -72 23 -90 33 -31 80
-29 106 4 16 21 21 41 21 91 0 55 -4 67 -25 88 -13 14 -36 25 -50 25 -14 0
-37 -11 -50 -25z"/>
<path d="M1294 2367 c-56 -49 -18 -136 82 -187 97 -50 210 -26 287 59 54 60
45 129 -18 145 -31 8 -58 -5 -94 -46 -41 -46 -87 -43 -145 10 -52 48 -74 52
-112 19z"/>
</g>
</svg>
