<?xml version="1.0" standalone="no"?>
<!DOCTYPE svg PUBLIC "-//W3C//DTD SVG 20010904//EN"
 "http://www.w3.org/TR/2001/REC-SVG-20010904/DTD/svg10.dtd">
<svg version="1.0" xmlns="http://www.w3.org/2000/svg"
 width="512.000000pt" height="512.000000pt" viewBox="0 0 512.000000 512.000000"
 preserveAspectRatio="xMidYMid meet">
<metadata>
Created by potrace 1.16, written by Peter Selinger 2001-2019
</metadata>
<g transform="translate(0.000000,512.000000) scale(0.100000,-0.100000)"
fill="#000000" stroke="none">
<path d="M1589 5097 c-101 -42 -172 -109 -218 -206 l-26 -56 0 -2275 0 -2275
27 -57 c37 -80 107 -152 187 -191 l66 -32 1605 0 1605 0 57 27 c80 37 152 107
191 187 l32 66 3 694 2 694 -27 30 c-25 25 -33 28 -73 24 -33 -4 -51 -13 -72
-36 l-28 -31 0 -360 0 -360 -1690 0 -1690 0 0 1670 0 1670 1130 0 1130 0 0
-511 c0 -356 3 -517 11 -532 26 -51 84 -71 132 -46 12 7 88 75 169 151 l148
140 160 -151 c170 -160 183 -168 245 -139 55 25 55 24 55 578 l0 510 100 0
100 0 0 -861 0 -861 34 -34 c45 -45 100 -47 140 -8 l26 27 -2 1146 -3 1146
-32 66 c-39 80 -111 150 -191 187 l-57 27 -1595 2 -1595 3 -56 -23z m3196
-188 c51 -14 110 -73 124 -124 6 -22 11 -100 11 -172 l0 -133 -1690 0 -1690 0
0 133 c0 153 9 196 53 243 62 67 -42 63 1632 64 1079 0 1532 -3 1560 -11z
m-265 -1011 l0 -381 -22 19 c-13 10 -59 53 -104 96 -121 116 -147 116 -268 0
-45 -43 -91 -86 -103 -96 l-23 -19 0 381 0 382 260 0 260 0 0 -382z m400
-3340 c0 -103 -5 -200 -11 -223 -14 -51 -73 -110 -124 -124 -56 -15 -3054 -15
-3110 0 -51 14 -110 73 -124 124 -6 23 -11 120 -11 223 l0 182 1690 0 1690 0
0 -182z"/>
<path d="M2821 4786 c-67 -37 -65 -143 4 -174 19 -9 133 -12 406 -12 412 0
423 1 447 55 23 51 7 107 -39 131 -39 20 -782 20 -818 0z"/>
<path d="M3174 562 c-51 -41 -57 -97 -15 -144 24 -27 36 -33 71 -33 72 0 121
76 89 138 -18 35 -51 57 -89 57 -19 0 -45 -8 -56 -18z"/>
<path d="M431 4553 c-19 -18 -100 -174 -230 -442 l-201 -414 0 -1523 c0 -1503
0 -1524 20 -1577 24 -65 91 -136 158 -169 46 -22 54 -23 322 -23 268 0 276 1
322 23 67 33 134 104 158 169 20 53 20 74 20 1577 l0 1523 -201 414 c-130 268
-211 424 -230 442 -22 20 -39 27 -69 27 -30 0 -47 -7 -69 -27z m191 -553 l116
-240 -238 0 -238 0 116 240 c64 132 119 240 122 240 3 0 58 -108 122 -240z
m178 -1640 l0 -1200 -95 0 -95 0 0 834 c0 568 -3 843 -11 864 -22 64 -114 85
-160 36 l-24 -26 -5 -851 -5 -852 -102 -3 -103 -3 0 1201 0 1200 300 0 300 0
0 -1200z m-2 -1539 c-5 -214 -12 -220 -298 -220 -286 0 -293 6 -298 220 l-4
139 302 0 302 0 -4 -139z"/>
<path d="M436 3289 c-45 -53 -33 -125 26 -155 79 -41 167 35 138 120 -14 43
-48 66 -99 66 -32 0 -44 -6 -65 -31z"/>
<path d="M1945 3768 c-74 -40 -73 -139 2 -177 15 -8 229 -11 733 -11 l712 0
34 34 c24 25 34 43 34 66 0 23 -10 42 -34 66 l-34 34 -713 0 c-500 -1 -720 -4
-734 -12z"/>
<path d="M1945 3208 c-74 -40 -73 -139 2 -177 15 -8 229 -11 733 -11 l712 0
34 34 c24 25 34 43 34 66 0 23 -10 42 -34 66 l-34 34 -713 0 c-500 -1 -720 -4
-734 -12z"/>
<path d="M1914 2626 c-46 -46 -46 -86 0 -132 25 -24 43 -34 66 -34 44 0 100
56 100 100 0 44 -56 100 -100 100 -23 0 -41 -9 -66 -34z"/>
<path d="M2354 2626 c-46 -46 -46 -86 0 -132 l34 -34 1132 0 1132 0 34 34 c46
46 46 86 0 132 l-34 34 -1132 0 -1132 0 -34 -34z"/>
<path d="M4990 2149 c-38 -16 -59 -39 -66 -74 -19 -101 125 -164 180 -80 9 14
16 43 16 65 0 33 -6 48 -29 71 -31 30 -58 35 -101 18z"/>
<path d="M1914 2066 c-46 -46 -46 -86 0 -132 l34 -34 1352 0 1352 0 34 34 c46
46 46 86 0 132 l-34 34 -1352 0 -1352 0 -34 -34z"/>
<path d="M1914 1506 c-46 -46 -46 -86 0 -132 l34 -34 1352 0 1352 0 34 34 c46
46 46 86 0 132 l-34 34 -1352 0 -1352 0 -34 -34z"/>
</g>
</svg>
