<?xml version="1.0" standalone="no"?>
<!DOCTYPE svg PUBLIC "-//W3C//DTD SVG 20010904//EN"
 "http://www.w3.org/TR/2001/REC-SVG-20010904/DTD/svg10.dtd">
<svg version="1.0" xmlns="http://www.w3.org/2000/svg"
 width="512.000000pt" height="512.000000pt" viewBox="0 0 512.000000 512.000000"
 preserveAspectRatio="xMidYMid meet">
<metadata>
Created by potrace 1.16, written by Peter Selinger 2001-2019
</metadata>
<g transform="translate(0.000000,512.000000) scale(0.100000,-0.100000)"
fill="#000000" stroke="none">
<path d="M2716 4751 c-457 -221 -766 -376 -777 -390 -23 -28 -25 -98 -5 -127
8 -11 152 -87 320 -169 l306 -149 0 -313 0 -313 -36 0 c-202 0 -361 -210 -310
-408 36 -141 137 -231 282 -251 36 -6 67 -11 68 -13 1 -2 12 -47 24 -101 25
-117 91 -261 161 -356 52 -70 146 -164 196 -197 29 -19 27 -19 -480 -24 -459
-5 -514 -7 -547 -23 l-38 -17 0 753 0 753 23 44 c14 30 36 53 62 67 37 21 53
23 197 23 180 0 203 6 228 63 21 46 16 79 -18 112 l-26 26 -200 -3 c-194 -3
-203 -4 -258 -30 -32 -15 -69 -38 -83 -52 l-25 -25 -25 25 c-14 14 -51 37 -83
52 l-57 27 -781 3 -781 2 -26 -26 -27 -27 0 -1142 0 -1142 25 -25 c27 -27 69
-38 148 -38 l47 0 0 -240 0 -240 -84 0 c-77 0 -85 -2 -110 -26 -26 -27 -26
-27 -26 -188 0 -109 5 -179 15 -216 52 -197 218 -363 415 -415 83 -22 4177
-22 4260 0 197 52 363 218 415 415 10 37 15 107 15 216 0 161 0 161 -26 188
-25 24 -33 26 -110 26 l-84 0 0 759 0 758 -26 27 c-40 39 -96 36 -140 -8 l-34
-34 0 -751 0 -751 -2140 0 -2140 0 0 245 0 245 1530 0 c1665 0 1572 -3 1598
55 8 17 12 85 12 194 l0 168 89 12 c212 29 388 118 546 276 141 142 216 277
257 462 12 54 22 99 23 100 0 1 31 7 69 13 109 17 171 58 257 168 36 46 51
193 27 263 -42 121 -187 229 -310 229 l-38 0 0 313 0 314 218 105 217 106 3
-248 2 -248 27 -26 c37 -37 109 -37 147 0 l26 27 0 353 c0 352 0 353 -22 378
-14 15 -323 169 -782 390 -635 306 -766 366 -800 365 -32 -1 -200 -78 -800
-368z m1329 -98 l513 -248 -400 -5 -400 -5 -29 -33 c-46 -51 -35 -120 24 -154
16 -10 125 -14 411 -18 l389 -5 -513 -248 c-283 -136 -519 -246 -526 -245 -22
5 -1254 602 -1250 605 10 10 1243 602 1254 603 8 0 245 -111 527 -247z m-2450
-1136 c26 -14 48 -37 63 -67 l22 -44 0 -753 0 -753 -37 17 c-35 17 -94 18
-740 21 l-703 3 0 799 0 800 678 0 677 0 40 -23z m1543 -531 c194 -86 366
-156 382 -156 16 0 188 70 382 156 194 86 359 158 367 161 21 9 10 -520 -14
-602 -84 -296 -299 -499 -590 -560 -340 -70 -704 121 -838 441 -55 129 -59
161 -64 453 -4 228 -3 273 8 268 8 -3 173 -75 367 -161z m-578 -26 l0 -130
-31 0 c-70 0 -138 78 -125 143 13 63 72 117 129 117 l27 0 0 -130z m2000 115
c38 -19 68 -60 76 -100 12 -68 -54 -145 -125 -145 l-31 0 0 130 0 130 25 0
c15 0 39 -7 55 -15z m-2970 -1358 c49 -25 90 -90 90 -139 l0 -28 -740 0 -740
0 0 95 0 95 673 0 674 0 43 -23z m1770 -72 l0 -95 -740 0 -740 0 0 28 c0 49
41 114 90 139 l43 23 674 0 673 0 0 -95z m1560 -1034 c0 -123 -37 -218 -115
-296 -57 -57 -119 -91 -195 -105 -72 -14 -4028 -14 -4100 0 -76 14 -138 48
-195 105 -78 78 -115 173 -115 296 l0 49 2360 0 2360 0 0 -49z"/>
<path d="M3474 4384 c-59 -29 -72 -104 -26 -155 24 -26 36 -32 72 -32 36 0 48
6 72 32 46 52 33 127 -27 156 -41 19 -52 19 -91 -1z"/>
<path d="M535 3071 c-64 -27 -81 -110 -32 -158 l27 -28 390 0 390 0 27 27 c38
39 38 97 0 136 l-27 27 -378 2 c-207 1 -386 -2 -397 -6z"/>
<path d="M535 2591 c-32 -14 -55 -46 -62 -84 -5 -32 -1 -41 30 -72 l35 -35
192 0 192 0 35 35 c31 31 35 40 30 72 -4 20 -18 48 -32 62 -25 26 -27 26 -213
28 -103 1 -196 -1 -207 -6z"/>
<path d="M1221 2587 c-95 -55 -40 -206 67 -182 73 16 103 109 51 160 -30 31
-85 41 -118 22z"/>
<path d="M2278 501 c-27 -24 -33 -36 -33 -71 0 -35 6 -47 33 -71 l32 -29 246
0 c260 0 290 5 314 49 13 25 13 77 0 102 -24 44 -54 49 -314 49 l-246 0 -32
-29z"/>
<path d="M4980 3329 c-62 -24 -82 -118 -36 -164 67 -67 176 -27 176 65 0 50
-22 85 -62 99 -37 13 -45 13 -78 0z"/>
</g>
</svg>
